<?xml version="1.0" encoding="UTF-8"?>
<svg id="Layer_1" data-name="Layer 1" xmlns="http://www.w3.org/2000/svg" xmlns:xlink="http://www.w3.org/1999/xlink" viewBox="0 0 228.39 489.35">
  <defs>
    <style>
      .cls-1 {
        fill: url(#linear-gradient-2);
      }

      .cls-2 {
        fill: url(#linear-gradient-6);
      }

      .cls-3 {
        fill: url(#linear-gradient-10);
      }

      .cls-4 {
        fill: url(#linear-gradient-5);
      }

      .cls-5, .cls-6 {
        fill: none;
      }

      .cls-7 {
        fill: url(#linear-gradient-7);
      }

      .cls-6 {
        clip-path: url(#clippath);
      }

      .cls-8 {
        fill: url(#linear-gradient-9);
      }

      .cls-9 {
        fill: url(#linear-gradient-3);
      }

      .cls-10 {
        fill: url(#linear-gradient);
      }

      .cls-11 {
        fill: url(#linear-gradient-4);
      }

      .cls-12 {
        fill: url(#linear-gradient-8);
      }
    </style>
    <clipPath id="clippath">
      <rect class="cls-5" width="228.39" height="489.35"/>
    </clipPath>
    <linearGradient id="linear-gradient" x1="-242.62" y1="121.76" x2="248.79" y2="121.76" gradientTransform="translate(80.64 83.59) rotate(20.89) scale(1.07 1.03)" gradientUnits="userSpaceOnUse">
      <stop offset=".37" stop-color="#f8eb30"/>
      <stop offset=".77" stop-color="#28a8e0"/>
      <stop offset="1" stop-color="#65308f"/>
    </linearGradient>
    <linearGradient id="linear-gradient-2" x1="-236.83" y1="132.14" x2="254.57" y2="132.14" xlink:href="#linear-gradient"/>
    <linearGradient id="linear-gradient-3" x1="-231.04" y1="142.52" x2="260.36" y2="142.52" xlink:href="#linear-gradient"/>
    <linearGradient id="linear-gradient-4" x1="-225.25" y1="152.9" x2="266.15" y2="152.9" xlink:href="#linear-gradient"/>
    <linearGradient id="linear-gradient-5" x1="-219.46" y1="163.28" x2="271.94" y2="163.28" xlink:href="#linear-gradient"/>
    <linearGradient id="linear-gradient-6" x1="-213.67" y1="173.66" x2="277.73" y2="173.66" xlink:href="#linear-gradient"/>
    <linearGradient id="linear-gradient-7" x1="-207.88" y1="184.04" x2="283.52" y2="184.04" xlink:href="#linear-gradient"/>
    <linearGradient id="linear-gradient-8" x1="-202.09" y1="194.42" x2="289.31" y2="194.42" xlink:href="#linear-gradient"/>
    <linearGradient id="linear-gradient-9" x1="-196.3" y1="204.8" x2="295.1" y2="204.8" xlink:href="#linear-gradient"/>
    <linearGradient id="linear-gradient-10" x1="-190.51" y1="215.18" x2="300.89" y2="215.18" xlink:href="#linear-gradient"/>
  </defs>
  <g class="cls-6">
    <g>
      <path class="cls-10" d="m206.52,498.09c-73.13-31.6-117.15-70.94-130.83-116.93-10.49-35.23-.05-62.08,12.04-93.18,12.05-31,25.71-66.14,23.63-119.06C108.64,99.79,86.47,42.58,45.47-1.09-16.31-66.89-100.44-78.07-133.75-79.83l.05-.92C-100.29-78.99-15.87-67.76,46.14-1.72c41.16,43.84,63.42,101.24,66.14,170.61,2.09,53.1-11.61,88.34-23.7,119.43-12.03,30.93-22.41,57.65-12.02,92.58,13.61,45.72,57.45,84.86,130.32,116.35l-.36.84Z"/>
      <path class="cls-1" d="m208.47,510.3c-73.13-31.6-117.15-70.94-130.83-116.93-10.49-35.23-.05-62.08,12.04-93.18,12.05-31,25.71-66.14,23.63-119.06-2.72-69.14-24.89-126.35-65.89-170.02C-14.36-54.68-98.49-65.87-131.8-67.62l.05-.92c33.42,1.76,117.83,12.99,179.84,79.03,41.16,43.84,63.42,101.24,66.14,170.61,2.09,53.1-11.61,88.34-23.7,119.43-12.03,30.94-22.41,57.65-12.02,92.58,13.61,45.72,57.45,84.86,130.32,116.35l-.36.84Z"/>
      <path class="cls-9" d="m210.42,522.5c-73.13-31.6-117.15-70.94-130.83-116.93-10.49-35.23-.05-62.08,12.04-93.18,12.05-31,25.71-66.14,23.63-119.06-2.72-69.14-24.89-126.35-65.89-170.02C-12.4-42.47-96.54-53.66-129.84-55.41l.05-.92c33.42,1.76,117.83,12.99,179.84,79.03,41.16,43.84,63.42,101.24,66.14,170.61,2.09,53.1-11.61,88.34-23.7,119.43-12.03,30.94-22.41,57.65-12.02,92.58,13.61,45.72,57.45,84.86,130.32,116.35l-.36.84Z"/>
      <path class="cls-11" d="m212.38,534.71c-73.13-31.6-117.15-70.94-130.83-116.93-10.49-35.23-.05-62.08,12.04-93.18,12.05-31,25.71-66.14,23.63-119.06-2.72-69.14-24.89-126.35-65.89-170.02C-10.45-30.26-94.59-41.45-127.89-43.21l.05-.92c33.42,1.76,117.83,12.99,179.84,79.03,41.16,43.84,63.42,101.24,66.14,170.61,2.09,53.1-11.61,88.34-23.7,119.43-12.03,30.94-22.41,57.65-12.02,92.58,13.61,45.72,57.45,84.86,130.32,116.35l-.36.84Z"/>
      <path class="cls-4" d="m214.33,546.92c-73.13-31.6-117.15-70.94-130.83-116.93-10.49-35.23-.05-62.08,12.04-93.18,12.05-31,25.71-66.14,23.63-119.06-2.72-69.14-24.89-126.35-65.89-170.02C-8.5-18.06-92.63-29.24-125.94-31l.05-.92c33.42,1.76,117.83,12.99,179.84,79.03,41.16,43.84,63.42,101.24,66.14,170.61,2.09,53.1-11.61,88.34-23.7,119.43-12.03,30.94-22.41,57.65-12.02,92.58,13.61,45.72,57.45,84.86,130.32,116.35l-.36.84Z"/>
      <path class="cls-2" d="m216.28,559.12c-73.13-31.6-117.15-70.94-130.83-116.93-10.49-35.23-.05-62.08,12.04-93.18,12.05-31,25.71-66.14,23.63-119.06-2.72-69.14-24.89-126.35-65.89-170.02C-6.55-5.85-90.68-17.04-123.99-18.79l.05-.92C-90.52-17.95-6.11-6.72,55.9,59.32c41.16,43.84,63.42,101.24,66.14,170.61,2.09,53.1-11.61,88.34-23.7,119.43-12.03,30.94-22.41,57.65-12.02,92.58,13.61,45.72,57.45,84.86,130.32,116.35l-.36.84Z"/>
      <path class="cls-7" d="m218.23,571.33c-73.13-31.6-117.15-70.94-130.83-116.93-10.49-35.23-.05-62.08,12.04-93.18,12.05-31,25.71-66.14,23.63-119.06-2.72-69.14-24.89-126.35-65.89-170.02C-4.59,6.36-88.73-4.83-122.03-6.59l.05-.92C-88.57-5.74-4.15,5.49,57.85,71.52c41.16,43.84,63.42,101.24,66.14,170.61,2.09,53.1-11.61,88.34-23.7,119.43-12.03,30.94-22.41,57.65-12.02,92.58,13.61,45.72,57.45,84.86,130.32,116.35l-.36.84Z"/>
      <path class="cls-12" d="m220.19,583.54c-73.13-31.6-117.15-70.94-130.83-116.93-10.49-35.23-.05-62.08,12.04-93.18,12.05-31,25.71-66.14,23.63-119.06-2.72-69.14-24.89-126.35-65.89-170.02C-2.64,18.56-86.78,7.38-120.08,5.62l.05-.92C-86.62,6.47-2.2,17.69,59.8,83.73c41.16,43.84,63.42,101.24,66.14,170.61,2.09,53.1-11.61,88.34-23.7,119.43-12.03,30.94-22.41,57.65-12.02,92.58,13.61,45.72,57.45,84.86,130.32,116.35l-.36.84Z"/>
      <path class="cls-8" d="m222.14,595.75c-73.13-31.6-117.15-70.94-130.83-116.93-10.49-35.23-.05-62.08,12.04-93.18,12.05-31,25.71-66.14,23.63-119.06-2.72-69.14-24.89-126.35-65.89-170.02C-.69,30.77-84.82,19.58-118.13,17.83l.05-.92C-84.67,18.67-.25,29.9,61.76,95.94c41.16,43.84,63.42,101.24,66.14,170.61,2.09,53.1-11.61,88.34-23.7,119.42-12.03,30.94-22.41,57.65-12.02,92.58,13.61,45.72,57.45,84.86,130.32,116.34l-.36.84Z"/>
      <path class="cls-3" d="m224.09,607.95c-73.13-31.6-117.15-70.94-130.83-116.93-10.49-35.23-.05-62.08,12.04-93.18,12.05-31,25.71-66.14,23.63-119.06-2.72-69.14-24.89-126.35-65.89-170.02C1.26,42.98-82.87,31.79-116.18,30.04l.05-.92C-82.71,30.88,1.7,42.11,63.71,108.15c41.16,43.84,63.42,101.24,66.14,170.61,2.09,53.1-11.61,88.34-23.7,119.42-12.03,30.94-22.41,57.65-12.02,92.58,13.61,45.72,57.45,84.86,130.32,116.34l-.36.84Z"/>
    </g>
  </g>
</svg>