<?xml version="1.0" encoding="UTF-8"?>
<svg id="Layer_1" data-name="Layer 1" xmlns="http://www.w3.org/2000/svg" viewBox="0 0 129.44 129.44">
  <defs>
    <style>
      .cls-1 {
        fill: #f1f2f2;
      }
    </style>
  </defs>
  <path class="cls-1" d="m64.72,0C29.03,0,0,29.03,0,64.72s29.03,64.72,64.72,64.72,64.72-29.03,64.72-64.72S100.41,0,64.72,0Zm0,128.44c-35.14,0-63.72-28.58-63.72-63.72S29.58,1,64.72,1s63.72,28.58,63.72,63.72-28.58,63.72-63.72,63.72Z"/>
  <path class="cls-1" d="m114.95,29.81l-4.24-3.91c-3.31-3.05-8.33-2.79-11.23.6l-43.91,51.29-26.88-25.87c-3.25-3.12-8.28-2.96-11.24.35l-3.59,4.02c-2.96,3.32-2.74,8.54.51,11.66l36.89,35.49c2.48,2.39,6.01,2.84,8.86,1.44,1.18-.45,2.28-1.15,3.16-2.19l52.43-61.24c2.9-3.38,2.56-8.6-.74-11.65Z"/>
</svg>