<?xml version="1.0" encoding="UTF-8"?>
<svg id="Layer_1" data-name="Layer 1" xmlns="http://www.w3.org/2000/svg" viewBox="0 0 99.04 96.04">
  <defs>
    <style>
      .cls-1 {
        fill: #f2f2f2;
      }
    </style>
  </defs>
  <path class="cls-1" d="m0,70.91c0,13.86,9.39,25.13,20.93,25.13s20.93-11.27,20.93-25.13c0-.48-.01-.97-.04-1.44.06-.91-.07-1.92-.31-3.06-.36-2.36-.99-4.61-1.85-6.69-.95-3.33-1.88-7.13-1.88-10.82,0-4.07,1.13-8.29,2.17-11.85,1.6-3.55,2.51-7.61,2.51-11.92C42.47,11.27,33.08,0,21.54,0,10,0,.61,11.27.61,25.13c0,10.02,4.91,18.69,12,22.72C5.2,51.73,0,60.6,0,70.91Zm35.17-3.26c-6.33-1-11.41-7.36-12.49-15.49,4.61.73,8.56,4.3,10.78,9.33.21.72.41,1.43.61,2.1.37,1.25.83,2.8,1.09,3.96,0,.03,0,.06.01.09Zm-1.37-32.53c-2.32,4.84-6.27,8.22-10.83,8.8,1.53-7.31,6.33-12.86,12.21-13.78-.26,1.18-.73,2.77-1.11,4.06-.09.3-.18.61-.27.92Zm-2.43,12.18c-.03.53-.05,1.06-.05,1.59,0,.07,0,.14,0,.21-.48-.33-.96-.64-1.46-.92.51-.27,1.02-.56,1.51-.88Zm4.59-23.51c-9.39.51-17.19,8.48-19.37,19.08-5.54-2.65-9.51-9.6-9.51-17.75,0-10.42,6.49-18.89,14.46-18.89s13.89,7.76,14.42,17.55ZM6.47,70.91c0-8.28,4.1-15.33,9.79-17.87,1.56,11.24,9.34,19.97,18.93,20.9-1.11,8.98-7.09,15.86-14.27,15.86-7.97,0-14.46-8.47-14.46-18.89Z"/>
  <path class="cls-1" d="m86.44,47.85c7.09-4.03,12-12.7,12-22.72C98.44,11.27,89.05,0,77.51,0c-11.54,0-20.93,11.27-20.93,25.13,0,4.31.91,8.37,2.51,11.92,1.04,3.56,2.17,7.78,2.17,11.85,0,3.69-.93,7.49-1.88,10.82-.87,2.08-1.5,4.33-1.85,6.69-.24,1.13-.36,2.14-.31,3.06-.02.48-.04.96-.04,1.44,0,13.86,9.39,25.13,20.93,25.13,11.54,0,20.93-11.27,20.93-25.13,0-10.31-5.2-19.18-12.61-23.05Zm-22.55,19.7c.26-1.17.72-2.71,1.09-3.96.2-.67.41-1.38.61-2.1,2.22-5.03,6.17-8.6,10.78-9.33-1.09,8.13-6.17,14.49-12.49,15.49,0-.03,0-.06.01-.09Zm1.09-33.35c-.38-1.29-.85-2.88-1.11-4.06,5.88.92,10.69,6.48,12.21,13.78-4.57-.59-8.51-3.96-10.83-8.8-.09-.31-.18-.62-.27-.92Zm4.21,13.98c-.5.28-.99.59-1.46.92,0-.07,0-.14,0-.21s-.03-1.06-.05-1.59c.49.32.99.61,1.51.88Zm8.32-41.94c7.97,0,14.46,8.47,14.46,18.89,0,8.15-3.97,15.1-9.51,17.75-2.18-10.6-9.97-18.58-19.37-19.08.53-9.79,6.79-17.55,14.42-17.55Zm.61,83.55c-7.18,0-13.16-6.88-14.27-15.86,9.59-.94,17.38-9.67,18.93-20.9,5.69,2.54,9.79,9.59,9.79,17.87,0,10.42-6.49,18.89-14.46,18.89Z"/>
</svg>