<?xml version="1.0" encoding="UTF-8"?>
<svg id="Layer_1" data-name="Layer 1" xmlns="http://www.w3.org/2000/svg" xmlns:xlink="http://www.w3.org/1999/xlink" viewBox="0 0 265.22 265.22">
  <defs>
    <style>
      .cls-1 {
        fill: url(#linear-gradient-2);
      }

      .cls-2 {
        fill: url(#linear-gradient-3);
      }

      .cls-3 {
        fill: url(#linear-gradient);
      }

      .cls-4 {
        fill: url(#linear-gradient-4);
      }
    </style>
    <linearGradient id="linear-gradient" x1="0" y1="132.61" x2="265.22" y2="132.61" gradientUnits="userSpaceOnUse">
      <stop offset=".37" stop-color="#f8eb30"/>
      <stop offset=".77" stop-color="#28a8e0"/>
      <stop offset="1" stop-color="#65308f"/>
    </linearGradient>
    <linearGradient id="linear-gradient-2" x1="83.34" y1="199.63" x2="211.45" y2="199.63" xlink:href="#linear-gradient"/>
    <linearGradient id="linear-gradient-3" x1="116.04" y1="98.26" x2="178.75" y2="98.26" gradientTransform="translate(112.65 -75.45) rotate(45)" xlink:href="#linear-gradient"/>
    <linearGradient id="linear-gradient-4" x1="33.83" y1="123.02" x2="98.62" y2="123.02" xlink:href="#linear-gradient"/>
  </defs>
  <path class="cls-3" d="m132.61,0C59.49,0,0,59.49,0,132.61s59.49,132.61,132.61,132.61,132.61-59.49,132.61-132.61S205.73,0,132.61,0Zm0,264.22C60.04,264.22,1,205.18,1,132.61S60.04,1,132.61,1s131.61,59.04,131.61,131.61-59.04,131.61-131.61,131.61Z"/>
  <ellipse class="cls-1" cx="147.4" cy="199.63" rx="64.05" ry="61.34"/>
  <circle class="cls-2" cx="147.4" cy="98.26" r="31.36" transform="translate(-26.31 133) rotate(-45)"/>
  <path class="cls-4" d="m98.62,123.6v-1.17c0-2.9-2.35-5.25-5.25-5.25h-21.3v-21.3c0-2.9-2.35-5.25-5.25-5.25h-1.17c-2.9,0-5.25,2.35-5.25,5.25v21.3h-21.3c-2.9,0-5.25,2.35-5.25,5.25v1.17c0,2.9,2.35,5.25,5.25,5.25h21.3v21.3c0,2.9,2.35,5.25,5.25,5.25h1.17c2.9,0,5.25-2.35,5.25-5.25v-21.3h21.3c2.9,0,5.25-2.35,5.25-5.25Z"/>
</svg>