<?xml version="1.0" encoding="UTF-8"?>
<svg id="Layer_1" data-name="Layer 1" xmlns="http://www.w3.org/2000/svg" xmlns:xlink="http://www.w3.org/1999/xlink" viewBox="0 0 152.12 145.35">
  <defs>
    <style>
      .cls-1 {
        fill: url(#linear-gradient-2);
      }

      .cls-2 {
        fill: none;
        opacity: .95;
      }

      .cls-3 {
        fill: url(#linear-gradient);
      }
    </style>
    <linearGradient id="linear-gradient" x1="119.99" y1="145.35" x2="119.99" y2="0" gradientUnits="userSpaceOnUse">
      <stop offset=".37" stop-color="#f8eb30"/>
      <stop offset=".77" stop-color="#28a8e0"/>
      <stop offset="1" stop-color="#65308f"/>
    </linearGradient>
    <linearGradient id="linear-gradient-2" x1="1499.78" y1="145.35" x2="1499.78" y2="0" gradientTransform="translate(1531.92) rotate(-180) scale(1 -1)" xlink:href="#linear-gradient"/>
  </defs>
  <g class="cls-2">
    <path class="cls-3" d="m133.04,72.43c10.73-6.1,18.16-19.22,18.16-34.39C151.21,17.06,137,0,119.53,0c-17.47,0-31.68,17.06-31.68,38.03,0,6.52,1.38,12.67,3.8,18.04,1.58,5.39,3.29,11.77,3.29,17.93,0,5.58-1.41,11.33-2.84,16.37-1.31,3.15-2.27,6.55-2.81,10.13-.36,1.72-.55,3.25-.46,4.63-.03.72-.06,1.45-.06,2.19,0,20.97,14.21,38.03,31.68,38.03,17.47,0,31.68-17.06,31.68-38.03,0-15.6-7.87-29.03-19.08-34.89Zm-34.12,29.82c.4-1.77,1.08-4.1,1.65-6,.3-1.02.61-2.09.93-3.18,3.37-7.62,9.34-13.02,16.32-14.12-1.65,12.31-9.33,21.94-18.91,23.44,0-.05.01-.09.02-.14Zm1.65-50.48c-.58-1.95-1.29-4.36-1.68-6.14,8.9,1.39,16.17,9.81,18.48,20.86-6.91-.89-12.88-6-16.39-13.32-.14-.47-.28-.94-.41-1.4Zm6.37,21.16c-.76.43-1.49.9-2.21,1.4,0-.11.01-.21.01-.32,0-.81-.04-1.61-.08-2.41.74.48,1.51.92,2.28,1.32Zm12.59-63.48c12.07,0,21.88,12.83,21.88,28.59,0,12.33-6,22.86-14.39,26.86-3.3-16.05-15.1-28.11-29.31-28.88.8-14.82,10.28-26.57,21.82-26.57Zm.92,126.46c-10.87,0-19.91-10.41-21.6-24,14.52-1.42,26.3-14.63,28.66-31.64,8.61,3.85,14.82,14.52,14.82,27.05,0,15.76-9.82,28.59-21.88,28.59Z"/>
    <path class="cls-1" d="m0,107.32c0,20.97,14.21,38.03,31.68,38.03,17.47,0,31.68-17.06,31.68-38.03,0-.73-.02-1.46-.06-2.19.08-1.38-.1-2.91-.46-4.63-.54-3.57-1.5-6.97-2.81-10.13-1.44-5.04-2.84-10.8-2.84-16.37,0-6.16,1.71-12.54,3.29-17.93,2.42-5.37,3.8-11.51,3.8-18.04C64.27,17.06,50.06,0,32.59,0,15.13,0,.92,17.06.92,38.03c0,15.17,7.44,28.29,18.16,34.39C7.87,78.29,0,91.72,0,107.32Zm53.23-4.93c-9.58-1.51-17.26-11.14-18.91-23.44,6.98,1.1,12.95,6.51,16.32,14.12.31,1.09.63,2.16.93,3.18.56,1.9,1.25,4.23,1.65,6,0,.05.01.09.02.14Zm-2.08-49.23c-3.51,7.32-9.48,12.43-16.39,13.32,2.31-11.06,9.58-19.47,18.48-20.86-.39,1.78-1.1,4.2-1.68,6.14-.13.45-.27.93-.41,1.4Zm-3.68,18.44c-.04.8-.08,1.6-.08,2.41,0,.11,0,.21.01.32-.72-.5-1.46-.97-2.21-1.4.78-.41,1.54-.85,2.28-1.32Zm6.94-35.59c-14.21.77-26.01,12.84-29.31,28.88-8.39-4-14.39-14.53-14.39-26.86,0-15.76,9.82-28.59,21.88-28.59,11.55,0,21.02,11.75,21.82,26.57ZM9.79,107.32c0-12.54,6.21-23.21,14.82-27.05,2.36,17,14.13,30.22,28.66,31.64-1.68,13.59-10.73,24-21.6,24-12.07,0-21.88-12.83-21.88-28.59Z"/>
  </g>
</svg>