<?xml version="1.0" encoding="UTF-8"?>
<svg id="Layer_1" data-name="Layer 1" xmlns="http://www.w3.org/2000/svg" viewBox="0 0 186.78 176.95">
  <defs>
    <style>
      .cls-1 {
        fill: none;
      }

      .cls-2 {
        fill: #6abd45;
      }
    </style>
  </defs>
  <path class="cls-1" d="m97.96,133.11l-18.54-15.32.06-.08-37.6-32.86,15.88-19.08,37.19,32.51,42.02-52.8c-11.43-9.87-26.73-15.97-43.58-15.97-35.23,0-63.9,26.46-63.9,58.98s28.67,58.98,63.9,58.98,63.9-26.46,63.9-58.98c0-8.29-1.88-16.17-5.24-23.34l-54.08,67.97Z"/>
  <path class="cls-2" d="m171.7,40.44l.07-.09-.28-.23C154.8,15.99,126.05,0,93.39,0,41.89,0,0,39.69,0,88.47s41.89,88.47,93.39,88.47,93.39-39.69,93.39-88.47c0-17.71-5.58-34.19-15.07-48.04Zm-78.31,107.02c-35.23,0-63.9-26.46-63.9-58.98s28.67-58.98,63.9-58.98c16.85,0,32.15,6.1,43.58,15.97l-42.02,52.8-37.19-32.51-15.88,19.08,37.6,32.86-.06.08,18.54,15.32,54.08-67.97c3.36,7.16,5.24,15.05,5.24,23.34,0,32.52-28.67,58.98-63.9,58.98Z"/>
</svg>