<?xml version="1.0" encoding="UTF-8"?>
<svg id="Layer_1" data-name="Layer 1" xmlns="http://www.w3.org/2000/svg" viewBox="0 0 275.15 235.64">
  <defs>
    <style>
      .cls-1 {
        fill: #f1f2f2;
      }
    </style>
  </defs>
  <circle class="cls-1" cx="140.79" cy="53.04" r="16.85"/>
  <circle class="cls-1" cx="71.5" cy="145.28" r="16.85"/>
  <path class="cls-1" d="m275.15,161.14c0-37.33-28.75-68.05-65.27-71.21,1.57-5.88,2.42-12.05,2.42-18.42C212.29,32.08,180.22,0,140.79,0s-71.5,32.08-71.5,71.5c0,7.22,1.08,14.18,3.08,20.76-.29,0-.58-.02-.87-.02C32.08,92.24,0,124.31,0,163.74c0,36.99,28.23,67.51,64.28,71.14,2.33.5,4.74.76,7.22.76s4.89-.27,7.22-.76c27.13-2.73,49.81-20.7,59.39-45.19,10.13,23.15,32.16,39.95,58.32,42.59,2.33.5,4.74.76,7.22.76s4.89-.27,7.22-.76c36.05-3.63,64.28-34.15,64.28-71.14ZM70.29,71.5C70.29,32.63,101.92,1,140.79,1s70.5,31.63,70.5,70.5c0,6.34-.86,12.49-2.44,18.34-1.72-.12-3.46-.21-5.21-.21-11,0-21.42,2.5-30.74,6.95-4.98-12.89-17.47-22.04-32.12-22.04-16.54,0-30.36,11.67-33.67,27.23-9.98-5.76-21.46-9.17-33.71-9.5-2.03-6.57-3.13-13.55-3.13-20.78Zm57.15,69.22c-25.31-4.87-45.83-23.31-53.69-47.43,12.06.38,23.36,3.8,33.17,9.53-.36,2-.56,4.05-.56,6.16,0,14.28,8.69,26.53,21.08,31.74Zm11.54,2.64c1.95,6.46,3.02,13.3,3.02,20.38,0,8.13-1.4,15.94-3.94,23.21-3.16-8-4.92-16.7-4.92-25.81,0-6.27.83-12.35,2.38-18.13,1.14.17,2.3.29,3.47.35Zm36.23-34.38c0-4.02-.69-7.87-1.96-11.45,9.21-4.42,19.51-6.89,30.39-6.89,1.66,0,3.3.08,4.93.19-7.23,25.32-28.28,44.86-54.44,49.89,12.38-5.21,21.08-17.46,21.08-31.74Zm-90.37,123.98c12.38-5.21,21.08-17.46,21.08-31.74,0-19.01-15.41-34.43-34.43-34.43s-34.43,15.41-34.43,34.43c0,14.28,8.69,26.53,21.08,31.74C25.64,226.7,1,198.05,1,163.74c0-38.88,31.63-70.5,70.5-70.5.4,0,.79.02,1.19.03,8.52,26.61,32.23,46.49,60.88,49.37.32.07.64.13.96.19-1.55,5.85-2.39,11.98-2.39,18.31,0,9.64,1.93,18.84,5.41,27.24-8.5,22.71-28.4,39.9-52.7,44.58Zm132.14-2.6c12.38-5.21,21.08-17.46,21.08-31.74,0-19.01-15.41-34.43-34.43-34.43s-34.43,15.41-34.43,34.43c0,14.28,8.69,26.53,21.08,31.74-23.37-4.5-42.66-20.55-51.67-41.97,2.83-7.69,4.38-15.99,4.38-24.64,0-7.07-1.05-13.9-2.97-20.35.25,0,.5.02.76.02,2.48,0,4.89-.27,7.22-.76,29.49-2.97,53.74-23.95,61.58-51.74,36.1,3.03,64.55,33.36,64.55,70.23,0,34.31-24.64,62.96-57.15,69.22Z"/>
  <circle class="cls-1" cx="203.65" cy="142.67" r="16.85" transform="translate(-6.1 276.22) rotate(-67.5)"/>
</svg>