<?xml version="1.0" encoding="UTF-8"?>
<svg id="Layer_1" data-name="Layer 1" xmlns="http://www.w3.org/2000/svg" viewBox="0 0 181.98 172.4">
  <defs>
    <style>
      .cls-1 {
        fill: #fff;
      }

      .cls-2 {
        fill: #707071;
      }
    </style>
  </defs>
  <path class="cls-1" d="m0,86.2C0,38.67,40.82,0,90.99,0h0C40.74,0,0,38.59,0,86.2s40.74,86.2,90.99,86.2h0C40.82,172.4,0,133.73,0,86.2Z"/>
  <path class="cls-1" d="m181.67,79.03C177.83,34.91,138.93.21,91.42,0c47.43.21,86.4,34.97,90.25,79.02Z"/>
  <path class="cls-1" d="m57.39,134.54c9.7,5.77,21.23,9.13,33.61,9.13s25.03-3.69,35.01-9.98l-33.81-28.91-34.81,29.76Z"/>
  <path class="cls-1" d="m70.87,86.55l-33.84-28.94c-5.26,8.43-8.29,18.19-8.29,28.59s3.13,20.51,8.57,29.04l33.56-28.7Z"/>
  <path class="cls-1" d="m126.46,39.01c-10.07-6.47-22.29-10.28-35.47-10.28s-24.28,3.47-34.08,9.41l35.28,30.17,34.27-29.3Z"/>
  <path class="cls-1" d="m113.52,86.55l32,27.36c4.92-8.22,7.73-17.66,7.73-27.7s-2.7-19.14-7.46-27.25l-32.27,27.6Z"/>
  <path class="cls-1" d="m91.42,172.4c47.51-.21,86.41-34.91,90.25-79.02-3.85,44.06-42.82,78.82-90.25,79.02Z"/>
  <path class="cls-2" d="m181.67,79.03C177.82,34.97,138.85.21,91.42,0c-.14,0-.28,0-.42,0h0C40.82,0,0,38.67,0,86.2s40.82,86.2,90.99,86.2h0c.14,0,.28,0,.42,0,47.43-.21,86.4-34.97,90.25-79.02.21-2.37.32-4.76.32-7.17s-.11-4.81-.32-7.17ZM90.99,28.73c13.17,0,25.4,3.81,35.47,10.28l-34.27,29.3-35.28-30.17c9.8-5.94,21.51-9.41,34.08-9.41Zm-53.97,28.87l33.84,28.94-33.56,28.7c-5.44-8.53-8.57-18.45-8.57-29.04s3.03-20.17,8.29-28.59Zm53.97,86.06c-12.37,0-23.9-3.36-33.61-9.13l34.81-29.76,33.81,28.91c-9.98,6.29-22.04,9.98-35.01,9.98Zm54.52-29.76l-32-27.36,32.27-27.6c4.76,8.11,7.46,17.4,7.46,27.25s-2.81,19.48-7.73,27.7Z"/>
</svg>