<?xml version="1.0" encoding="UTF-8"?>
<svg id="Layer_1" data-name="Layer 1" xmlns="http://www.w3.org/2000/svg" viewBox="0 0 52.36 123.14">
  <defs>
    <style>
      .cls-1 {
        fill: #f2f2f2;
      }
    </style>
  </defs>
  <path class="cls-1" d="m37.44,61.23c8.21-5.41,13.83-16.28,13.83-28.79C51.27,14.56,39.77,0,25.64,0S0,14.56,0,32.45c0,7.26,1.89,13.97,5.09,19.38.57,2.81,1.01,5.86,1.01,9.06,0,5.36-1.18,10.58-2.26,15.22-1.75,4.39-2.75,9.34-2.75,14.59,0,17.89,11.5,32.45,25.64,32.45s25.64-14.56,25.64-32.45c0-13.05-6.12-24.32-14.92-29.47Zm-27.32,25.45c-.17-1.53.73-5.41,1.41-8.31,0-.04.02-.07.03-.11,2.59-6.06,7.02-10.43,12.21-11.66-1.17,11.26-6.76,20.09-13.25,20.09-.16,0-.29,0-.4-.02Zm1.27-42.91c-.52-2-1.2-4.61-1.28-5.95.12,0,.25-.01.41-.01,6.26,0,11.69,8.23,13.11,18.92-4.31-.68-8.16-3.52-10.96-7.73-.41-1.87-.86-3.63-1.28-5.23Zm3.53,18.15c-.29.19-.58.39-.87.6.01-.37.03-.74.03-1.11.28.18.56.35.84.51ZM25.64,8c9.72,0,17.64,10.97,17.64,24.45,0,10.61-4.9,19.66-11.73,23.03-2.01-14.84-10.52-25.67-21.02-25.67-.88,0-1.68.08-2.43.23.88-12.35,8.41-22.04,17.55-22.04Zm1.09,107.14c-8.76,0-16.04-8.9-17.4-20.51.39.04.78.06,1.2.06,10.91,0,19.68-11.7,21.23-27.43,7.28,3.01,12.61,12.37,12.61,23.43,0,13.48-7.91,24.45-17.64,24.45Z"/>
</svg>