<?xml version="1.0" encoding="UTF-8"?>
<svg id="Layer_1" data-name="Layer 1" xmlns="http://www.w3.org/2000/svg" xmlns:xlink="http://www.w3.org/1999/xlink" viewBox="0 0 236.17 116.44">
  <defs>
    <style>
      .cls-1 {
        fill: url(#linear-gradient-2);
      }

      .cls-2 {
        fill: url(#linear-gradient);
      }
    </style>
    <linearGradient id="linear-gradient" x1="87.45" y1="58.56" x2="105.17" y2="58.56" gradientUnits="userSpaceOnUse">
      <stop offset=".37" stop-color="#f8eb30"/>
      <stop offset=".77" stop-color="#28a8e0"/>
      <stop offset="1" stop-color="#65308f"/>
    </linearGradient>
    <linearGradient id="linear-gradient-2" x1="0" y1="58.22" x2="236.17" y2="58.22" xlink:href="#linear-gradient"/>
  </defs>
  <path class="cls-2" d="m96.35,35.94c-3.02,0-5.32.94-6.93,2.81-1.32,1.52-1.97,3.37-1.97,5.56v27.23c0,2.46.63,4.55,1.9,6.29,1.55,2.23,3.89,3.35,7,3.35,3.31,0,5.69-1.12,7.15-3.35,1.12-1.65,1.68-3.84,1.68-6.56v-26.97c0-2.27-.7-4.17-2.11-5.69-1.6-1.78-3.84-2.68-6.71-2.68Z"/>
  <path class="cls-1" d="m214.48,0H21.69C9.71,0,0,8.91,0,19.9v76.65c0,10.99,9.71,19.9,21.69,19.9h192.79c11.98,0,21.69-8.91,21.69-19.9V19.9c0-10.99-9.71-19.9-21.69-19.9Zm-99.17,68.86c-.05,5.71-1.02,10.06-2.92,13.05-2.96,4.55-8.34,6.82-16.12,6.82s-13.27-2.27-16.19-6.82c-1.9-2.9-2.85-7.25-2.85-13.05v-21.48c-.05-5.44.9-9.62,2.85-12.51,2.92-4.46,8.31-6.69,16.19-6.69s13.1,2.23,16.12,6.69c1.94,2.94,2.92,7.11,2.92,12.51v21.48Zm33.33,18.74l-14.08-25.03-3.36,6.42v18.6h-10.07V29.38h10.07v22.42l14.22-22.42h12.33l-17.07,25.03,19.98,33.19h-12.03Z"/>
</svg>