<?xml version="1.0" encoding="UTF-8"?>
<svg id="Layer_1" data-name="Layer 1" xmlns="http://www.w3.org/2000/svg" xmlns:xlink="http://www.w3.org/1999/xlink" viewBox="0 0 528.57 429.1">
  <defs>
    <style>
      .cls-1 {
        stroke: url(#linear-gradient-2);
      }

      .cls-1, .cls-2, .cls-3, .cls-4, .cls-5, .cls-6, .cls-7, .cls-8, .cls-9, .cls-10, .cls-11, .cls-12, .cls-13, .cls-14, .cls-15 {
        fill: none;
      }

      .cls-1, .cls-2, .cls-3, .cls-4, .cls-5, .cls-6, .cls-7, .cls-8, .cls-9, .cls-11, .cls-12, .cls-13, .cls-14, .cls-15 {
        stroke-miterlimit: 10;
      }

      .cls-2 {
        stroke: url(#linear-gradient-3);
      }

      .cls-3 {
        stroke: url(#linear-gradient-9);
      }

      .cls-4 {
        stroke: url(#linear-gradient-4);
      }

      .cls-5 {
        stroke: url(#linear-gradient-6);
      }

      .cls-6 {
        stroke: url(#linear-gradient-13);
      }

      .cls-7 {
        stroke: url(#linear-gradient-7);
      }

      .cls-8 {
        stroke: url(#linear-gradient-12);
      }

      .cls-9 {
        stroke: url(#linear-gradient-5);
      }

      .cls-10 {
        opacity: .5;
      }

      .cls-11 {
        stroke: url(#linear-gradient);
      }

      .cls-12 {
        stroke: url(#linear-gradient-14);
      }

      .cls-13 {
        stroke: url(#linear-gradient-11);
      }

      .cls-14 {
        stroke: url(#linear-gradient-8);
      }

      .cls-15 {
        stroke: url(#linear-gradient-10);
      }
    </style>
    <linearGradient id="linear-gradient" x1="349.01" y1="633.77" x2="349.01" y2="435.99" gradientTransform="translate(-209.97 -344.54) rotate(5.09) scale(1.49 1.12)" gradientUnits="userSpaceOnUse">
      <stop offset="0" stop-color="#f8eb30"/>
      <stop offset=".05" stop-color="#f4e933"/>
      <stop offset=".1" stop-color="#e9e63c"/>
      <stop offset=".15" stop-color="#d6e04c"/>
      <stop offset=".2" stop-color="#bcd762"/>
      <stop offset=".24" stop-color="#9acc7e"/>
      <stop offset=".29" stop-color="#71bfa1"/>
      <stop offset=".33" stop-color="#41b0ca"/>
      <stop offset=".35" stop-color="#28a8e0"/>
      <stop offset=".4" stop-color="#3390d0"/>
      <stop offset=".53" stop-color="#4e5cad"/>
      <stop offset=".63" stop-color="#5e3c97"/>
      <stop offset=".68" stop-color="#65308f"/>
    </linearGradient>
    <linearGradient id="linear-gradient-2" x1="349.29" y1="622.49" x2="349.29" y2="424.71" xlink:href="#linear-gradient"/>
    <linearGradient id="linear-gradient-3" x1="349.57" y1="611.21" x2="349.57" y2="413.43" xlink:href="#linear-gradient"/>
    <linearGradient id="linear-gradient-4" x1="349.85" y1="599.93" x2="349.85" y2="402.15" xlink:href="#linear-gradient"/>
    <linearGradient id="linear-gradient-5" x1="350.13" y1="588.65" x2="350.13" y2="390.87" xlink:href="#linear-gradient"/>
    <linearGradient id="linear-gradient-6" x1="350.41" y1="577.37" x2="350.41" y2="379.59" xlink:href="#linear-gradient"/>
    <linearGradient id="linear-gradient-7" x1="350.69" y1="566.09" x2="350.69" y2="368.31" xlink:href="#linear-gradient"/>
    <linearGradient id="linear-gradient-8" x1="350.96" y1="554.81" x2="350.96" y2="357.03" xlink:href="#linear-gradient"/>
    <linearGradient id="linear-gradient-9" x1="351.24" y1="543.53" x2="351.24" y2="345.75" xlink:href="#linear-gradient"/>
    <linearGradient id="linear-gradient-10" x1="351.52" y1="532.25" x2="351.52" y2="334.47" xlink:href="#linear-gradient"/>
    <linearGradient id="linear-gradient-11" x1="351.8" y1="520.97" x2="351.8" y2="323.19" xlink:href="#linear-gradient"/>
    <linearGradient id="linear-gradient-12" x1="352.08" y1="509.69" x2="352.08" y2="311.91" xlink:href="#linear-gradient"/>
    <linearGradient id="linear-gradient-13" x1="352.36" y1="498.41" x2="352.36" y2="300.63" xlink:href="#linear-gradient"/>
    <linearGradient id="linear-gradient-14" x1="352.64" y1="487.13" x2="352.64" y2="289.35" xlink:href="#linear-gradient"/>
  </defs>
  <g class="cls-10">
    <path class="cls-11" d="m1.18,162.54c-20.47,94.21,427.9,240.55,507.34,266.09"/>
    <path class="cls-1" d="m2.71,150.04c-20.47,94.21,427.9,240.55,507.34,266.09"/>
    <path class="cls-2" d="m4.24,137.55c-20.47,94.21,427.9,240.55,507.34,266.09"/>
    <path class="cls-4" d="m5.77,125.05c-20.47,94.21,427.9,240.55,507.34,266.09"/>
    <path class="cls-9" d="m7.3,112.56c-20.47,94.21,427.9,240.55,507.34,266.09"/>
    <path class="cls-5" d="m8.83,100.06c-20.47,94.21,427.9,240.55,507.34,266.09"/>
    <path class="cls-7" d="m10.36,87.57c-20.47,94.21,427.9,240.55,507.34,266.09"/>
    <path class="cls-14" d="m11.89,75.07c-20.47,94.21,427.9,240.55,507.34,266.09"/>
    <path class="cls-3" d="m13.43,62.58c-20.47,94.21,427.9,240.55,507.34,266.09"/>
    <path class="cls-15" d="m14.96,50.09c-20.47,94.21,427.9,240.55,507.34,266.09"/>
    <path class="cls-13" d="m16.49,37.59c-20.47,94.21,427.9,240.55,507.34,266.09"/>
    <path class="cls-8" d="m18.02,25.1C-2.45,119.31,445.92,265.64,525.36,291.18"/>
    <path class="cls-6" d="m19.55,12.6C-.92,106.81,447.45,253.15,526.89,278.69"/>
    <path class="cls-12" d="m21.08.11C.61,94.32,448.98,240.65,528.42,266.19"/>
  </g>
</svg>