<?xml version="1.0" encoding="UTF-8"?>
<svg id="Layer_1" data-name="Layer 1" xmlns="http://www.w3.org/2000/svg" xmlns:xlink="http://www.w3.org/1999/xlink" viewBox="0 0 251.14 483.03">
  <defs>
    <style>
      .cls-1 {
        fill: url(#linear-gradient-2);
      }

      .cls-2 {
        fill: url(#linear-gradient-6);
      }

      .cls-3 {
        fill: url(#linear-gradient-10);
      }

      .cls-4 {
        fill: url(#linear-gradient-5);
      }

      .cls-5 {
        fill: url(#linear-gradient-7);
      }

      .cls-6 {
        fill: url(#linear-gradient-9);
      }

      .cls-7 {
        fill: url(#linear-gradient-3);
      }

      .cls-8 {
        fill: url(#linear-gradient);
      }

      .cls-9 {
        fill: url(#linear-gradient-4);
      }

      .cls-10 {
        fill: url(#linear-gradient-8);
      }
    </style>
    <linearGradient id="linear-gradient" x1="-93.03" y1="100.32" x2="251.44" y2="100.32" gradientTransform="translate(78.96 71.6) rotate(20.89) scale(1.07 1.03)" gradientUnits="userSpaceOnUse">
      <stop offset=".37" stop-color="#f8eb30"/>
      <stop offset=".77" stop-color="#28a8e0"/>
      <stop offset="1" stop-color="#65308f"/>
    </linearGradient>
    <linearGradient id="linear-gradient-2" x1="-88.97" y1="107.6" x2="255.5" y2="107.6" xlink:href="#linear-gradient"/>
    <linearGradient id="linear-gradient-3" x1="-84.91" y1="114.87" x2="259.56" y2="114.87" xlink:href="#linear-gradient"/>
    <linearGradient id="linear-gradient-4" x1="-80.85" y1="122.15" x2="263.61" y2="122.15" xlink:href="#linear-gradient"/>
    <linearGradient id="linear-gradient-5" x1="-76.8" y1="129.42" x2="267.67" y2="129.42" xlink:href="#linear-gradient"/>
    <linearGradient id="linear-gradient-6" x1="-72.74" y1="136.7" x2="271.73" y2="136.7" xlink:href="#linear-gradient"/>
    <linearGradient id="linear-gradient-7" x1="-68.68" y1="143.97" x2="275.79" y2="143.97" xlink:href="#linear-gradient"/>
    <linearGradient id="linear-gradient-8" x1="-64.62" y1="151.25" x2="279.84" y2="151.25" xlink:href="#linear-gradient"/>
    <linearGradient id="linear-gradient-9" x1="-60.56" y1="158.52" x2="283.9" y2="158.52" xlink:href="#linear-gradient"/>
    <linearGradient id="linear-gradient-10" x1="-56.51" y1="165.8" x2="287.96" y2="165.8" xlink:href="#linear-gradient"/>
  </defs>
  <path class="cls-8" d="m238.42,406.03c-51.3-22.17-82.19-49.78-91.8-82.06-7.37-24.75-.04-43.6,8.44-65.42,8.44-21.71,18.01-46.32,16.55-83.37-1.9-48.42-17.43-88.47-46.13-119.05C82.23,10.06,23.32,2.23,0,1l.05-1c23.44,1.24,82.66,9.11,126.16,55.44,28.88,30.76,44.49,71.03,46.41,119.69,1.46,37.26-8.14,61.97-16.62,83.77-8.42,21.65-15.69,40.35-8.42,64.77,9.52,31.99,40.22,59.39,91.24,81.43l-.4.92Z"/>
  <path class="cls-1" d="m239.79,414.59c-51.3-22.17-82.19-49.78-91.8-82.06-7.37-24.75-.04-43.6,8.44-65.42,8.44-21.71,18.01-46.32,16.55-83.37-1.9-48.42-17.43-88.47-46.13-119.05C83.6,18.62,24.69,10.78,1.37,9.55l.05-1c23.44,1.24,82.66,9.11,126.16,55.44,28.88,30.76,44.49,71.03,46.41,119.69,1.46,37.26-8.14,61.97-16.62,83.77-8.42,21.65-15.69,40.35-8.42,64.77,9.52,31.99,40.22,59.39,91.24,81.43l-.4.92Z"/>
  <path class="cls-7" d="m241.16,423.14c-51.3-22.17-82.19-49.78-91.8-82.06-7.37-24.75-.04-43.6,8.44-65.42,8.44-21.71,18.01-46.32,16.55-83.37-1.9-48.42-17.43-88.47-46.13-119.05C84.97,27.17,26.06,19.34,2.74,18.11l.05-1c23.44,1.24,82.66,9.11,126.16,55.44,28.88,30.76,44.49,71.03,46.41,119.69,1.46,37.26-8.14,61.97-16.62,83.77-8.42,21.65-15.69,40.35-8.42,64.77,9.52,31.99,40.22,59.39,91.24,81.43l-.4.92Z"/>
  <path class="cls-9" d="m242.53,431.7c-51.3-22.17-82.19-49.78-91.8-82.06-7.37-24.75-.04-43.6,8.44-65.42,8.44-21.71,18.01-46.32,16.55-83.37-1.9-48.42-17.42-88.47-46.13-119.05C86.34,35.73,27.43,27.9,4.11,26.67l.05-1c23.44,1.24,82.66,9.11,126.16,55.44,28.88,30.76,44.49,71.03,46.41,119.69,1.46,37.26-8.14,61.97-16.62,83.77-8.42,21.65-15.69,40.35-8.42,64.77,9.52,31.99,40.22,59.39,91.24,81.43l-.4.92Z"/>
  <path class="cls-4" d="m243.9,440.25c-51.3-22.17-82.19-49.78-91.8-82.06-7.37-24.75-.04-43.6,8.44-65.42,8.44-21.71,18.01-46.32,16.55-83.37-1.9-48.42-17.42-88.47-46.13-119.05C87.71,44.28,28.79,36.45,5.47,35.22l.05-1c23.44,1.24,82.66,9.11,126.16,55.44,28.88,30.76,44.49,71.03,46.41,119.69,1.46,37.26-8.14,61.97-16.62,83.77-8.42,21.65-15.69,40.35-8.42,64.77,9.52,31.99,40.22,59.39,91.24,81.43l-.4.92Z"/>
  <path class="cls-2" d="m245.27,448.81c-51.3-22.17-82.19-49.78-91.8-82.06-7.37-24.75-.04-43.6,8.44-65.42,8.44-21.71,18.01-46.32,16.55-83.37-1.9-48.42-17.42-88.47-46.13-119.05C89.07,52.84,30.16,45.01,6.84,43.78l.05-1c23.44,1.24,82.66,9.11,126.16,55.44,28.88,30.76,44.49,71.03,46.41,119.69,1.46,37.26-8.14,61.97-16.62,83.77-8.42,21.65-15.69,40.35-8.42,64.77,9.52,31.99,40.22,59.39,91.24,81.43l-.4.92Z"/>
  <path class="cls-5" d="m246.63,457.36c-51.3-22.17-82.19-49.78-91.8-82.06-7.37-24.75-.04-43.6,8.44-65.42,8.44-21.71,18.01-46.32,16.55-83.37-1.9-48.41-17.42-88.47-46.13-119.05C90.44,61.39,31.53,53.56,8.21,52.33l.05-1c23.44,1.24,82.66,9.11,126.16,55.44,28.88,30.76,44.49,71.03,46.41,119.69,1.46,37.26-8.14,61.97-16.62,83.77-8.42,21.65-15.69,40.35-8.42,64.77,9.52,31.99,40.22,59.39,91.24,81.43l-.4.92Z"/>
  <path class="cls-10" d="m248,465.92c-51.3-22.17-82.19-49.78-91.8-82.06-7.37-24.75-.04-43.6,8.44-65.42,8.44-21.71,18.01-46.32,16.55-83.37-1.9-48.41-17.42-88.47-46.13-119.05C91.81,69.95,32.9,62.12,9.58,60.89l.05-1c23.44,1.24,82.66,9.11,126.16,55.44,28.88,30.76,44.49,71.03,46.41,119.69,1.46,37.26-8.14,61.97-16.62,83.77-8.42,21.65-15.69,40.35-8.42,64.77,9.52,31.99,40.22,59.39,91.24,81.43l-.4.92Z"/>
  <path class="cls-6" d="m249.37,474.48c-51.3-22.17-82.19-49.78-91.8-82.06-7.37-24.75-.04-43.6,8.44-65.42,8.44-21.71,18.01-46.32,16.55-83.37-1.9-48.41-17.42-88.47-46.13-119.05-43.25-46.07-102.17-53.9-125.49-55.13l.05-1c23.44,1.24,82.66,9.11,126.16,55.44,28.88,30.76,44.49,71.03,46.41,119.69,1.46,37.26-8.14,61.97-16.62,83.77-8.42,21.65-15.69,40.35-8.42,64.77,9.52,31.99,40.22,59.39,91.24,81.43l-.4.92Z"/>
  <path class="cls-3" d="m250.74,483.03c-51.3-22.17-82.19-49.78-91.8-82.06-7.37-24.75-.04-43.6,8.44-65.42,8.44-21.71,18.01-46.32,16.55-83.37-1.9-48.41-17.42-88.47-46.13-119.05-43.25-46.07-102.17-53.9-125.49-55.13l.05-1c23.44,1.24,82.66,9.11,126.16,55.44,28.88,30.76,44.49,71.03,46.41,119.69,1.46,37.26-8.14,61.97-16.62,83.77-8.42,21.65-15.69,40.35-8.42,64.77,9.52,31.99,40.22,59.39,91.24,81.43l-.4.92Z"/>
</svg>